# xmcd
#
# Track frame offsets: 
#        182
#        16732
#        24982
#        48620
#        65245
#        76457
#        96007
#        114282
#        134332
#        154982
#        169907
#        188332
#
# Disc length: 2750 seconds
#
# Revision: 7
# Processed by: cddbd v1.5.2PL0 Copyright (c) Steve Scherf et al.
# Submitted via: ExactAudioCopy v1.0b3
#
DISCID=940abc0c
DTITLE=John Mayall And The Bluesbreakers - Crusade
DYEAR=1967
DGENRE=Blues
TTITLE0=Oh, Pretty Woman
TTITLE1=Stand Back Baby
TTITLE2=My Time After Awhile
TTITLE3=Snowy Wood
TTITLE4=Man Of Stone
TTITLE5=Tears In My Eyes
TTITLE6=Driving Sideways
TTITLE7=The Death Of J. B. Lenoir
TTITLE8=I Can't Quit You Baby
TTITLE9=Streamline
TTITLE10=Me And My Woman
TTITLE11=Checkin' Up On My Baby
EXTD=
EXTT0=
EXTT1=
EXTT2=
EXTT3=
EXTT4=
EXTT5=
EXTT6=
EXTT7=
EXTT8=
EXTT9=
EXTT10=
EXTT11=
PLAYORDER=
